<?xml version="1.0" encoding="UTF-8"?>
<svg id="Layer_2" data-name="Layer 2" xmlns="http://www.w3.org/2000/svg" viewBox="0 0 568 99.27">
  <defs>
    <style>
      .cls-1 {
        fill: #f2edd4;
      }

      .cls-2 {
        fill: #f9b233;
      }

      .cls-3 {
        fill: #b14329;
      }
    </style>
  </defs>
  <g id="Layer_1-2" data-name="Layer 1">
    <g>
      <g>
        <g>
          <path class="cls-1" d="M393.23,25.3c10.14,0,18.99,3.58,26.05,10.84l-3.48,3.68c-6.06-6.26-13.82-9.44-22.57-9.44-17.5,0-32.01,14.41-32.01,31.91s14.32,31.91,32.01,31.91c8.65,0,16.4-3.08,22.57-9.25l3.48,3.48c-7.06,7.26-15.91,10.84-26.05,10.84-20.38,0-36.98-16.6-36.98-36.98s16.5-36.98,36.98-36.98Z"/>
          <path class="cls-1" d="M476.54,57.81v-12.43h4.97v52.59h-4.97v-12.03c-4.37,8.25-13.22,13.32-22.57,13.32-15.41,0-27.54-12.23-27.54-27.64s12.33-27.54,27.54-27.54c9.05,0,18.69,5.47,22.57,13.72ZM476.54,72.43c0-12.92-9.35-23.26-22.57-23.26-12.33,0-22.57,10.04-22.57,22.47s10.04,22.57,22.57,22.57,22.57-9.54,22.57-21.77Z"/>
          <path class="cls-1" d="M527.34,57.81c-1.49-5.87-7.95-8.75-13.52-8.75s-12.92,2.09-12.92,9.05c0,7.65,7.46,8.85,13.42,9.84,9.15,1.49,18.29,5.47,18.29,16.2s-9.44,15.11-18.79,15.11c-7.26,0-16.7-3.28-18.99-10.94l4.57-1.69c1.69,5.77,9.44,7.65,14.71,7.65,6.36,0,13.52-2.78,13.52-10.24,0-17.4-31.61-5.17-31.61-26.15,0-9.94,9.15-13.82,17.8-13.82,7.56,0,15.61,4.47,17.99,11.93l-4.47,1.79Z"/>
          <path class="cls-1" d="M568,45.39v4.97h-10.94v47.62h-4.97v-47.62h-10.94v-4.97h10.94v-18.79h4.97v18.79h10.94Z"/>
        </g>
        <g>
          <path class="cls-3" d="M159.91,31.57h-36.39v28.23h33.9v5.07h-33.9v33.11h-4.97V26.59h41.36v4.97Z"/>
          <path class="cls-3" d="M171.83,26.59h4.97v71.38h-4.97V26.59Z"/>
          <path class="cls-3" d="M241.23,57.81v-12.43h4.97v52.59h-4.97v-12.03c-4.37,8.25-13.22,13.32-22.57,13.32-15.41,0-27.54-12.23-27.54-27.64s12.33-27.54,27.54-27.54c9.05,0,18.69,5.47,22.57,13.72ZM241.23,72.43c0-12.92-9.35-23.26-22.57-23.26-12.33,0-22.57,10.04-22.57,22.47s10.04,22.57,22.57,22.57,22.57-9.54,22.57-21.77Z"/>
          <path class="cls-3" d="M269.16,45.48v8.25c2.88-5.97,8.05-8.65,13.72-8.35v5.37c-7.85,0-13.72,5.67-13.72,15.61v31.62h-5.07v-52.49h5.07Z"/>
          <path class="cls-3" d="M291.23,71.63c0-15.21,12.33-27.54,27.54-27.54s27.54,12.43,27.54,27.54v2.58h-50.01c1.19,11.43,11.04,19.98,22.47,19.98,7.65,0,15.31-3.98,19.49-10.44l3.98,2.88c-5.17,7.75-14.22,12.63-23.46,12.63-15.41,0-27.54-12.23-27.54-27.64ZM341.14,69.15c-1.39-11.43-10.84-19.98-22.37-19.98s-21.28,8.55-22.47,19.98h44.84Z"/>
        </g>
      </g>
      <g>
        <path class="cls-1" d="M393.23,30.37c8.75,0,16.5,3.18,22.57,9.44l3.48-3.68c-7.06-7.26-15.91-10.84-26.05-10.84-20.48,0-36.98,16.5-36.98,36.98s16.6,36.98,36.98,36.98c10.14,0,18.99-3.58,26.05-10.84l-3.48-3.48c-6.16,6.16-13.92,9.25-22.57,9.25-17.7,0-32.01-14.22-32.01-31.91s14.51-31.91,32.01-31.91Z"/>
        <path class="cls-1" d="M476.54,57.81c-3.88-8.25-13.52-13.72-22.57-13.72-15.21,0-27.54,12.33-27.54,27.54s12.13,27.64,27.54,27.64c9.35,0,18.19-5.07,22.57-13.32v12.03h4.97v-52.59h-4.97v12.43ZM453.97,94.2c-12.53,0-22.57-10.04-22.57-22.57s10.24-22.47,22.57-22.47c13.22,0,22.57,10.34,22.57,23.26,0,12.23-10.64,21.77-22.57,21.77Z"/>
        <path class="cls-1" d="M514.32,67.95c-5.96-.99-13.42-2.19-13.42-9.84,0-6.96,7.16-9.05,12.92-9.05s12.03,2.88,13.52,8.75l4.47-1.79c-2.39-7.46-10.44-11.93-17.99-11.93-8.65,0-17.8,3.88-17.8,13.82,0,20.98,31.61,8.75,31.61,26.15,0,7.46-7.16,10.24-13.52,10.24-5.27,0-13.02-1.89-14.71-7.65l-4.57,1.69c2.29,7.66,11.73,10.94,18.99,10.94,9.35,0,18.79-4.57,18.79-15.11s-9.15-14.71-18.29-16.2Z"/>
        <polygon class="cls-1" points="557.06 45.39 557.06 26.59 552.09 26.59 552.09 45.39 541.16 45.39 541.16 50.36 552.09 50.36 552.09 97.98 557.06 97.98 557.06 50.36 568 50.36 568 45.39 557.06 45.39"/>
        <polygon class="cls-3" points="118.55 97.98 123.52 97.98 123.52 64.87 157.42 64.87 157.42 59.8 123.52 59.8 123.52 31.57 159.91 31.57 159.91 26.59 118.55 26.59 118.55 97.98"/>
        <rect class="cls-3" x="171.83" y="26.59" width="4.97" height="71.38"/>
        <path class="cls-3" d="M241.23,57.81c-3.88-8.25-13.52-13.72-22.57-13.72-15.21,0-27.54,12.33-27.54,27.54s12.13,27.64,27.54,27.64c9.35,0,18.19-5.07,22.57-13.32v12.03h4.97v-52.59h-4.97v12.43ZM218.66,94.2c-12.53,0-22.57-10.04-22.57-22.57s10.24-22.47,22.57-22.47c13.22,0,22.57,10.34,22.57,23.26,0,12.23-10.64,21.77-22.57,21.77Z"/>
        <path class="cls-3" d="M269.16,53.74v-8.25h-5.07v52.49h5.07v-31.62c0-9.94,5.87-15.61,13.72-15.61v-5.37c-5.67-.3-10.84,2.39-13.72,8.35Z"/>
        <path class="cls-3" d="M318.77,44.09c-15.21,0-27.54,12.33-27.54,27.54s12.13,27.64,27.54,27.64c9.25,0,18.29-4.87,23.46-12.63l-3.98-2.88c-4.17,6.46-11.83,10.44-19.49,10.44-11.43,0-21.28-8.55-22.47-19.98h50.01v-2.58c0-15.11-12.43-27.54-27.54-27.54ZM296.3,69.15c1.19-11.43,11.04-19.98,22.47-19.98s20.98,8.55,22.37,19.98h-44.84Z"/>
      </g>
      <g>
        <path class="cls-3" d="M82.4,51.74c-.71-4.36-2.23-8.52-4.78-12.27,0,0,.93,7.65-2.62,10.79-.86.76-3.04.93-3.02-.22C72.42,20.21,48.25,1.9,20.71,0c4.45,5.27,7.74,10.93,9.21,17.45,1.46,6.49.71,7.57-.66,11.16-1.88-9.4-6.6-11.54-9.28-13.17,4.37,7.55,4.43,9.35-1.19,15.48-3.38,3.68-7.05,7.14-10.28,10.93C2.38,49.05-.44,57.39.06,65.6c-.07.25-.05.51.06.77.48,5.65,2.53,11.23,6.2,16.3,2.77,3.83,6.21,7.03,10.96,9.71-1.93-4.31-3.02-8.23-1.76-12.5.26.81.42,1.66.78,2.44,4.52,9.9,10.1,15.24,20.94,15.92,27.11,1.7,49.26-21.35,45.17-46.49ZM30.19,90.92c-2.18-.75-3.58-2.25-5.06-3.7-1.57-1.54-3.45-2.71-5.82-3.26-.06-.01-.1-.04-.15-.05-.71-.72-1.39-1.47-2.03-2.26-.75-2.31-1.51-4.63-2.34-6.92-.13-.36-.02-1.07-.9-1.02.08-.49-.41-.74-.62-1.1-.45-.76-1.17-1.25-1.88-1.76-.86-2.86-1.33-5.88-1.33-9.02,0-.88.06-1.75.13-2.62.04-.09.06-.17.11-.26.64-1.2.77-2.41.67-3.75-.02-.23-.01-.46-.02-.7.59-2.45,1.45-4.78,2.57-6.96.87-.55,1.75-1.09,2.65-1.61.5-.3.83-1.44.35-1.87-.2-.17-.38-.35-.54-.53,1.49-2.06,3.21-3.95,5.14-5.59,1.34-.54,2.74-.96,4.22-1.26,1.2-.25,2.37-.6,3.57-.87.99-.22,1.78-.64,2.37-1.38,1.06-1.32,2.48-2.26,4.28-2.77,1.04-.29,1.94-.09,2.67.6.66.61,1.23.72,1.97.25.19.03.42.04.73.04.12,0,.24,0,.37,0,1.34,0,2.56-.31,3.72-.89.68-.34,1.36-.52,2.05-.62,2.67.49,5.23,1.28,7.61,2.4.75.62,1.43,1.3,2.13,1.97,1.54,1.49,3.38,2.62,5.65,3.21.96.87,1.86,1.81,2.71,2.79.74,2.24,1.48,4.48,2.3,6.71.13.36.02,1.08.93,1.04-.08.5.42.75.64,1.12.53.89,1.44,1.42,2.26,2.03.85,2.66,1.34,5.48,1.44,8.41.04,1.2-.04,2.35-.64,3.45-.67,1.22-.8,2.45-.69,3.81.08,1.1.03,2.2-.08,3.31-.42,1.32-.94,2.59-1.52,3.82-1.2.82-2.48,1.56-3.76,2.3-.52.3-.86,1.46-.36,1.9.41.35.76.72.93,1.14-1.12,1.51-2.37,2.91-3.74,4.2-1.93,1.02-4.03,1.71-6.28,2.17-1.24.25-2.44.62-3.68.89-1.02.23-1.83.65-2.45,1.41-1.09,1.34-2.56,2.3-4.41,2.81-1.07.3-2,.09-2.76-.61-.5-.46-.96-.63-1.47-.51-.05-.64-.28-.78-1.31-.78-.12,0-.24,0-.36,0-1.3,0-2.48.31-3.61.87-2.1,1.05-4.24.75-6.37.02Z"/>
        <path class="cls-2" d="M66.54,67.37c-.35-1.33-.75-2.66-1.12-3.98-1.28-4.55-2.55-9.1-3.83-13.66-1.03-3.67-4.37-6.21-8.18-6.21h-24.2c-3.66,0-6.88,2.44-7.87,5.97-.9,3.24-1.81,6.48-2.72,9.71-.7,2.49-1.4,4.97-2.13,7.45-1.14,3.85.78,7.77,4.53,9.16,1.03.38,2.2.33,3.21-.1,1.32-.57,2.47-1.37,3.56-2.28,2.18-1.82,4.08-3.91,5.84-6.12.13-.17.33-.26.55-.26,4.84,0,9.67,0,14.51,0,.22,0,.42.1.56.27,1.65,2.07,3.42,4.03,5.42,5.76,1.22,1.05,2.49,2.02,4,2.64.83.34,1.69.51,2.58.28,3.22-.84,5.47-3.76,5.46-7.34-.03-.26-.05-.78-.17-1.27ZM37.83,57.72c0,.58-.26.83-.84.84-.96,0-1.93,0-2.89,0-.65,0-.92.27-.93.92,0,.95,0,1.89,0,2.84,0,.65-.24.9-.87.9-1.28,0-2.56,0-3.84,0-.58,0-.83-.26-.84-.84,0-.92,0-1.83,0-2.75,0-.86-.22-1.07-1.06-1.07-.92,0-1.83,0-2.75,0-.58,0-.86-.26-.86-.83-.01-1.29-.01-2.59,0-3.88,0-.57.28-.83.86-.83.95,0,1.89,0,2.84,0,.73,0,.96-.24.97-.97,0-.93,0-1.86,0-2.79,0-.65.27-.91.93-.91,1.23,0,2.46,0,3.69,0,.68,0,.93.26.93.95,0,.93,0,1.86,0,2.79,0,.66.26.92.92.93.93,0,1.86,0,2.8,0,.73,0,.95.23.95.97,0,.6,0,1.2,0,1.8,0,.65,0,1.29,0,1.94ZM46.06,58.5c-1.51,0-2.73-1.22-2.73-2.73s1.22-2.73,2.73-2.73,2.73,1.22,2.73,2.73-1.22,2.73-2.73,2.73ZM51.79,47.1c1.51,0,2.73,1.22,2.73,2.73s-1.22,2.73-2.73,2.73-2.73-1.22-2.73-2.73,1.22-2.73,2.73-2.73ZM51.97,64.77c-1.51,0-2.73-1.22-2.73-2.73s1.22-2.73,2.73-2.73,2.73,1.22,2.73,2.73-1.22,2.73-2.73,2.73ZM57.88,58.5c-1.51,0-2.73-1.22-2.73-2.73s1.22-2.73,2.73-2.73,2.73,1.22,2.73,2.73-1.22,2.73-2.73,2.73Z"/>
      </g>
    </g>
  </g>
</svg>